<mxfile host="app.diagrams.net" modified="2023-06-26T09:21:58.273Z" agent="Mozilla/5.0 (Macintosh; Intel Mac OS X 10_15_7) AppleWebKit/537.36 (KHTML, like Gecko) Chrome/114.0.0.0 Safari/537.36" etag="8ozPnP5jNy5oRWV5PsYE" version="21.5.0" type="github">
  <diagram id="C5RBs43oDa-KdzZeNtuy" name="Page-1">
    <mxGraphModel dx="1251" dy="754" grid="1" gridSize="10" guides="1" tooltips="1" connect="1" arrows="1" fold="1" page="1" pageScale="1" pageWidth="827" pageHeight="1169" math="0" shadow="0">
      <root>
        <mxCell id="WIyWlLk6GJQsqaUBKTNV-0" />
        <mxCell id="WIyWlLk6GJQsqaUBKTNV-1" parent="WIyWlLk6GJQsqaUBKTNV-0" />
        <mxCell id="2f39FU00S81GK_c3kC9q-8" style="edgeStyle=orthogonalEdgeStyle;rounded=0;orthogonalLoop=1;jettySize=auto;html=1;exitX=0.5;exitY=1;exitDx=0;exitDy=0;entryX=0.5;entryY=0;entryDx=0;entryDy=0;" edge="1" parent="WIyWlLk6GJQsqaUBKTNV-1" source="2f39FU00S81GK_c3kC9q-1" target="2f39FU00S81GK_c3kC9q-7">
          <mxGeometry relative="1" as="geometry" />
        </mxCell>
        <mxCell id="2f39FU00S81GK_c3kC9q-1" value="开始&lt;br&gt;scanAndDump" style="rounded=1;whiteSpace=wrap;html=1;" vertex="1" parent="WIyWlLk6GJQsqaUBKTNV-1">
          <mxGeometry x="330" y="120" width="110" height="40" as="geometry" />
        </mxCell>
        <mxCell id="2f39FU00S81GK_c3kC9q-11" value="" style="edgeStyle=orthogonalEdgeStyle;rounded=0;orthogonalLoop=1;jettySize=auto;html=1;" edge="1" parent="WIyWlLk6GJQsqaUBKTNV-1" source="2f39FU00S81GK_c3kC9q-4" target="2f39FU00S81GK_c3kC9q-10">
          <mxGeometry relative="1" as="geometry" />
        </mxCell>
        <mxCell id="2f39FU00S81GK_c3kC9q-46" value="hasMore" style="edgeLabel;html=1;align=center;verticalAlign=middle;resizable=0;points=[];" vertex="1" connectable="0" parent="2f39FU00S81GK_c3kC9q-11">
          <mxGeometry x="-0.6389" y="-1" relative="1" as="geometry">
            <mxPoint as="offset" />
          </mxGeometry>
        </mxCell>
        <mxCell id="2f39FU00S81GK_c3kC9q-42" style="edgeStyle=orthogonalEdgeStyle;rounded=0;orthogonalLoop=1;jettySize=auto;html=1;entryX=0.5;entryY=0;entryDx=0;entryDy=0;" edge="1" parent="WIyWlLk6GJQsqaUBKTNV-1" source="2f39FU00S81GK_c3kC9q-4" target="2f39FU00S81GK_c3kC9q-30">
          <mxGeometry relative="1" as="geometry">
            <Array as="points">
              <mxPoint x="240" y="290" />
              <mxPoint x="240" y="820" />
              <mxPoint x="385" y="820" />
            </Array>
          </mxGeometry>
        </mxCell>
        <mxCell id="2f39FU00S81GK_c3kC9q-45" value="行扫描结束" style="edgeLabel;html=1;align=center;verticalAlign=middle;resizable=0;points=[];" vertex="1" connectable="0" parent="2f39FU00S81GK_c3kC9q-42">
          <mxGeometry x="-0.7145" relative="1" as="geometry">
            <mxPoint as="offset" />
          </mxGeometry>
        </mxCell>
        <mxCell id="2f39FU00S81GK_c3kC9q-4" value="行扫&lt;br&gt;scanner.next()" style="rhombus;whiteSpace=wrap;html=1;" vertex="1" parent="WIyWlLk6GJQsqaUBKTNV-1">
          <mxGeometry x="313.75" y="260" width="142.5" height="60" as="geometry" />
        </mxCell>
        <mxCell id="2f39FU00S81GK_c3kC9q-9" style="edgeStyle=orthogonalEdgeStyle;rounded=0;orthogonalLoop=1;jettySize=auto;html=1;entryX=0.5;entryY=0;entryDx=0;entryDy=0;" edge="1" parent="WIyWlLk6GJQsqaUBKTNV-1" source="2f39FU00S81GK_c3kC9q-7" target="2f39FU00S81GK_c3kC9q-4">
          <mxGeometry relative="1" as="geometry" />
        </mxCell>
        <mxCell id="2f39FU00S81GK_c3kC9q-7" value="创建并初始化scanner" style="rounded=0;whiteSpace=wrap;html=1;" vertex="1" parent="WIyWlLk6GJQsqaUBKTNV-1">
          <mxGeometry x="312.5" y="190" width="145" height="40" as="geometry" />
        </mxCell>
        <mxCell id="2f39FU00S81GK_c3kC9q-13" value="" style="edgeStyle=orthogonalEdgeStyle;rounded=0;orthogonalLoop=1;jettySize=auto;html=1;" edge="1" parent="WIyWlLk6GJQsqaUBKTNV-1" source="2f39FU00S81GK_c3kC9q-10" target="2f39FU00S81GK_c3kC9q-12">
          <mxGeometry relative="1" as="geometry" />
        </mxCell>
        <mxCell id="2f39FU00S81GK_c3kC9q-47" value="是" style="edgeLabel;html=1;align=center;verticalAlign=middle;resizable=0;points=[];" vertex="1" connectable="0" parent="2f39FU00S81GK_c3kC9q-13">
          <mxGeometry x="-0.0322" y="2" relative="1" as="geometry">
            <mxPoint as="offset" />
          </mxGeometry>
        </mxCell>
        <mxCell id="2f39FU00S81GK_c3kC9q-17" value="" style="edgeStyle=orthogonalEdgeStyle;rounded=0;orthogonalLoop=1;jettySize=auto;html=1;" edge="1" parent="WIyWlLk6GJQsqaUBKTNV-1" source="2f39FU00S81GK_c3kC9q-10" target="2f39FU00S81GK_c3kC9q-16">
          <mxGeometry relative="1" as="geometry" />
        </mxCell>
        <mxCell id="2f39FU00S81GK_c3kC9q-49" value="否" style="edgeLabel;html=1;align=center;verticalAlign=middle;resizable=0;points=[];" vertex="1" connectable="0" parent="2f39FU00S81GK_c3kC9q-17">
          <mxGeometry x="-0.2674" y="1" relative="1" as="geometry">
            <mxPoint y="3" as="offset" />
          </mxGeometry>
        </mxCell>
        <mxCell id="2f39FU00S81GK_c3kC9q-10" value="超出列限制" style="rhombus;whiteSpace=wrap;html=1;" vertex="1" parent="WIyWlLk6GJQsqaUBKTNV-1">
          <mxGeometry x="311.86" y="350" width="146.25" height="50" as="geometry" />
        </mxCell>
        <mxCell id="2f39FU00S81GK_c3kC9q-40" style="edgeStyle=orthogonalEdgeStyle;rounded=0;orthogonalLoop=1;jettySize=auto;html=1;entryX=0.5;entryY=0;entryDx=0;entryDy=0;" edge="1" parent="WIyWlLk6GJQsqaUBKTNV-1" source="2f39FU00S81GK_c3kC9q-12" target="2f39FU00S81GK_c3kC9q-4">
          <mxGeometry relative="1" as="geometry">
            <Array as="points">
              <mxPoint x="580" y="500" />
              <mxPoint x="580" y="240" />
              <mxPoint x="385" y="240" />
            </Array>
          </mxGeometry>
        </mxCell>
        <mxCell id="2f39FU00S81GK_c3kC9q-12" value="删除Record" style="whiteSpace=wrap;html=1;" vertex="1" parent="WIyWlLk6GJQsqaUBKTNV-1">
          <mxGeometry x="466.87" y="480" width="92.5" height="40" as="geometry" />
        </mxCell>
        <mxCell id="2f39FU00S81GK_c3kC9q-19" value="" style="edgeStyle=orthogonalEdgeStyle;rounded=0;orthogonalLoop=1;jettySize=auto;html=1;" edge="1" parent="WIyWlLk6GJQsqaUBKTNV-1" source="2f39FU00S81GK_c3kC9q-16" target="2f39FU00S81GK_c3kC9q-18">
          <mxGeometry relative="1" as="geometry" />
        </mxCell>
        <mxCell id="2f39FU00S81GK_c3kC9q-16" value="遍历该行的Cell，生成 MarvelRowRecord" style="whiteSpace=wrap;html=1;" vertex="1" parent="WIyWlLk6GJQsqaUBKTNV-1">
          <mxGeometry x="322.5" y="430" width="125" height="40" as="geometry" />
        </mxCell>
        <mxCell id="2f39FU00S81GK_c3kC9q-23" value="" style="edgeStyle=orthogonalEdgeStyle;rounded=0;orthogonalLoop=1;jettySize=auto;html=1;" edge="1" parent="WIyWlLk6GJQsqaUBKTNV-1" source="2f39FU00S81GK_c3kC9q-18" target="2f39FU00S81GK_c3kC9q-22">
          <mxGeometry relative="1" as="geometry" />
        </mxCell>
        <mxCell id="2f39FU00S81GK_c3kC9q-50" value="是" style="edgeLabel;html=1;align=center;verticalAlign=middle;resizable=0;points=[];" vertex="1" connectable="0" parent="2f39FU00S81GK_c3kC9q-23">
          <mxGeometry x="-0.2012" y="2" relative="1" as="geometry">
            <mxPoint as="offset" />
          </mxGeometry>
        </mxCell>
        <mxCell id="2f39FU00S81GK_c3kC9q-41" style="edgeStyle=orthogonalEdgeStyle;rounded=0;orthogonalLoop=1;jettySize=auto;html=1;entryX=0.5;entryY=0;entryDx=0;entryDy=0;exitX=0;exitY=0.5;exitDx=0;exitDy=0;" edge="1" parent="WIyWlLk6GJQsqaUBKTNV-1" source="2f39FU00S81GK_c3kC9q-18" target="2f39FU00S81GK_c3kC9q-27">
          <mxGeometry relative="1" as="geometry">
            <mxPoint x="340" y="530" as="sourcePoint" />
            <Array as="points">
              <mxPoint x="280" y="520" />
              <mxPoint x="280" y="670" />
              <mxPoint x="385" y="670" />
            </Array>
          </mxGeometry>
        </mxCell>
        <mxCell id="2f39FU00S81GK_c3kC9q-51" value="否" style="edgeLabel;html=1;align=center;verticalAlign=middle;resizable=0;points=[];" vertex="1" connectable="0" parent="2f39FU00S81GK_c3kC9q-41">
          <mxGeometry x="-0.4024" y="2" relative="1" as="geometry">
            <mxPoint as="offset" />
          </mxGeometry>
        </mxCell>
        <mxCell id="2f39FU00S81GK_c3kC9q-18" value="deleteWhileScan" style="rhombus;whiteSpace=wrap;html=1;" vertex="1" parent="WIyWlLk6GJQsqaUBKTNV-1">
          <mxGeometry x="318.75" y="500" width="132.5" height="40" as="geometry" />
        </mxCell>
        <mxCell id="2f39FU00S81GK_c3kC9q-28" value="" style="edgeStyle=orthogonalEdgeStyle;rounded=0;orthogonalLoop=1;jettySize=auto;html=1;" edge="1" parent="WIyWlLk6GJQsqaUBKTNV-1" source="2f39FU00S81GK_c3kC9q-22" target="2f39FU00S81GK_c3kC9q-27">
          <mxGeometry relative="1" as="geometry" />
        </mxCell>
        <mxCell id="2f39FU00S81GK_c3kC9q-53" value="获得有效列" style="edgeLabel;html=1;align=center;verticalAlign=middle;resizable=0;points=[];" vertex="1" connectable="0" parent="2f39FU00S81GK_c3kC9q-28">
          <mxGeometry x="-0.2888" y="3" relative="1" as="geometry">
            <mxPoint as="offset" />
          </mxGeometry>
        </mxCell>
        <mxCell id="2f39FU00S81GK_c3kC9q-39" style="edgeStyle=orthogonalEdgeStyle;rounded=0;orthogonalLoop=1;jettySize=auto;html=1;exitX=1;exitY=0.5;exitDx=0;exitDy=0;entryX=0.5;entryY=1;entryDx=0;entryDy=0;" edge="1" parent="WIyWlLk6GJQsqaUBKTNV-1" source="2f39FU00S81GK_c3kC9q-22" target="2f39FU00S81GK_c3kC9q-12">
          <mxGeometry relative="1" as="geometry" />
        </mxCell>
        <mxCell id="2f39FU00S81GK_c3kC9q-52" value="被过滤掉的列" style="edgeLabel;html=1;align=center;verticalAlign=middle;resizable=0;points=[];" vertex="1" connectable="0" parent="2f39FU00S81GK_c3kC9q-39">
          <mxGeometry x="0.1927" y="-1" relative="1" as="geometry">
            <mxPoint as="offset" />
          </mxGeometry>
        </mxCell>
        <mxCell id="2f39FU00S81GK_c3kC9q-22" value="NoveltysStoreDeleter&lt;br style=&quot;border-color: var(--border-color);&quot;&gt;::filterRecords()" style="rhombus;whiteSpace=wrap;html=1;" vertex="1" parent="WIyWlLk6GJQsqaUBKTNV-1">
          <mxGeometry x="303.11" y="580" width="163.75" height="65" as="geometry" />
        </mxCell>
        <mxCell id="2f39FU00S81GK_c3kC9q-44" style="edgeStyle=orthogonalEdgeStyle;rounded=0;orthogonalLoop=1;jettySize=auto;html=1;exitX=1;exitY=0.5;exitDx=0;exitDy=0;entryX=0.5;entryY=0;entryDx=0;entryDy=0;" edge="1" parent="WIyWlLk6GJQsqaUBKTNV-1" source="2f39FU00S81GK_c3kC9q-25" target="2f39FU00S81GK_c3kC9q-4">
          <mxGeometry relative="1" as="geometry">
            <Array as="points">
              <mxPoint x="580" y="789" />
              <mxPoint x="580" y="240" />
              <mxPoint x="385" y="240" />
            </Array>
          </mxGeometry>
        </mxCell>
        <mxCell id="2f39FU00S81GK_c3kC9q-25" value="writeSstable()" style="whiteSpace=wrap;html=1;" vertex="1" parent="WIyWlLk6GJQsqaUBKTNV-1">
          <mxGeometry x="332.48" y="770" width="105.01" height="37.5" as="geometry" />
        </mxCell>
        <mxCell id="2f39FU00S81GK_c3kC9q-29" style="edgeStyle=orthogonalEdgeStyle;rounded=0;orthogonalLoop=1;jettySize=auto;html=1;" edge="1" parent="WIyWlLk6GJQsqaUBKTNV-1" source="2f39FU00S81GK_c3kC9q-27" target="2f39FU00S81GK_c3kC9q-25">
          <mxGeometry relative="1" as="geometry" />
        </mxCell>
        <mxCell id="2f39FU00S81GK_c3kC9q-54" value="dump 形成文件" style="edgeLabel;html=1;align=center;verticalAlign=middle;resizable=0;points=[];" vertex="1" connectable="0" parent="2f39FU00S81GK_c3kC9q-29">
          <mxGeometry x="-0.2306" y="1" relative="1" as="geometry">
            <mxPoint as="offset" />
          </mxGeometry>
        </mxCell>
        <mxCell id="2f39FU00S81GK_c3kC9q-43" style="edgeStyle=orthogonalEdgeStyle;rounded=0;orthogonalLoop=1;jettySize=auto;html=1;entryX=0.5;entryY=0;entryDx=0;entryDy=0;" edge="1" parent="WIyWlLk6GJQsqaUBKTNV-1" source="2f39FU00S81GK_c3kC9q-27" target="2f39FU00S81GK_c3kC9q-4">
          <mxGeometry relative="1" as="geometry">
            <Array as="points">
              <mxPoint x="580" y="714" />
              <mxPoint x="580" y="240" />
              <mxPoint x="385" y="240" />
            </Array>
          </mxGeometry>
        </mxCell>
        <mxCell id="2f39FU00S81GK_c3kC9q-55" value="否" style="edgeLabel;html=1;align=center;verticalAlign=middle;resizable=0;points=[];" vertex="1" connectable="0" parent="2f39FU00S81GK_c3kC9q-43">
          <mxGeometry x="-0.8575" y="1" relative="1" as="geometry">
            <mxPoint as="offset" />
          </mxGeometry>
        </mxCell>
        <mxCell id="2f39FU00S81GK_c3kC9q-27" value="dumpWhileScan" style="rhombus;whiteSpace=wrap;html=1;" vertex="1" parent="WIyWlLk6GJQsqaUBKTNV-1">
          <mxGeometry x="313.74" y="690" width="142.5" height="47.5" as="geometry" />
        </mxCell>
        <mxCell id="2f39FU00S81GK_c3kC9q-30" value="done" style="rounded=1;whiteSpace=wrap;html=1;" vertex="1" parent="WIyWlLk6GJQsqaUBKTNV-1">
          <mxGeometry x="342.49" y="840" width="85" height="30" as="geometry" />
        </mxCell>
      </root>
    </mxGraphModel>
  </diagram>
</mxfile>
